# xmcd CD database file
#
# Track frame offsets:
#	150
#	8822
#	24570
#	38020
#	56670
#	80467
#	102142
#	118920
#	141472
#	158987
#	173717
#	194237
#	215100
#	231917
#	240610
#	255377
#	280645
#
# Disc length: 4507 seconds
#
# Revision: 2
# Processed by: cddbd v1.4PL0 Copyright (c) Steve Scherf et al.
# Submitted via: CDex 1.50beta8
#
DISCID=f1119911
DTITLE=Guy - III
DYEAR=2000
DGENRE=R&B
TTITLE0=Intro
TTITLE1=The Best
TTITLE2=Were Coming
TTITLE3=Dancin'
TTITLE4=Rescue Me
TTITLE5=Teddy's Jam III
TTITLE6=Do It
TTITLE7=Why You Wanna Keep Me From My Baby
TTITLE8=Telling Me No
TTITLE9=Not a Day
TTITLE10=Love Online
TTITLE11=Spend Time
TTITLE12=Don't You Miss Me
TTITLE13=2004
TTITLE14=Fly Away
TTITLE15=SomeDay
TTITLE16=Guy 3  Data Track
EXTD=YEAR: 2000
EXTT0=
EXTT1=
EXTT2=
EXTT3=
EXTT4=
EXTT5=
EXTT6=
EXTT7=
EXTT8=
EXTT9=
EXTT10=
EXTT11=
EXTT12=
EXTT13=
EXTT14=
EXTT15=
EXTT16=
PLAYORDER=
